<mxfile host="app.diagrams.net" agent="Mozilla/5.0 (Windows NT 10.0; Win64; x64) AppleWebKit/537.36 (KHTML, like Gecko) Chrome/140.0.0.0 Safari/537.36 Edg/140.0.0.0" version="26.1.0">
  <diagram name="Page-1" id="B18XRDJ-QsNpDFk5x9fd">
    <mxGraphModel dx="1158" dy="628" grid="1" gridSize="10" guides="1" tooltips="1" connect="1" arrows="1" fold="1" page="1" pageScale="1" pageWidth="850" pageHeight="1100" math="0" shadow="0">
      <root>
        <mxCell id="0" />
        <mxCell id="1" parent="0" />
        <mxCell id="2vKA8tlMeW09z5QeAfLY-30" value="" style="edgeStyle=orthogonalEdgeStyle;rounded=0;orthogonalLoop=1;jettySize=auto;html=1;" edge="1" parent="1" source="2vKA8tlMeW09z5QeAfLY-1" target="2vKA8tlMeW09z5QeAfLY-11">
          <mxGeometry relative="1" as="geometry" />
        </mxCell>
        <mxCell id="2vKA8tlMeW09z5QeAfLY-1" value="Financial Analyst" style="shape=umlActor;verticalLabelPosition=bottom;verticalAlign=top;html=1;outlineConnect=0;" vertex="1" parent="1">
          <mxGeometry x="150" y="140" width="30" height="60" as="geometry" />
        </mxCell>
        <mxCell id="2vKA8tlMeW09z5QeAfLY-32" style="edgeStyle=orthogonalEdgeStyle;rounded=0;orthogonalLoop=1;jettySize=auto;html=1;" edge="1" parent="1" source="2vKA8tlMeW09z5QeAfLY-2" target="2vKA8tlMeW09z5QeAfLY-24">
          <mxGeometry relative="1" as="geometry" />
        </mxCell>
        <mxCell id="2vKA8tlMeW09z5QeAfLY-2" value="Web Developer" style="shape=umlActor;verticalLabelPosition=bottom;verticalAlign=top;html=1;outlineConnect=0;" vertex="1" parent="1">
          <mxGeometry x="730" y="280" width="30" height="60" as="geometry" />
        </mxCell>
        <mxCell id="2vKA8tlMeW09z5QeAfLY-11" value="Runs Cells" style="ellipse;whiteSpace=wrap;html=1;" vertex="1" parent="1">
          <mxGeometry x="270" y="130" width="120" height="80" as="geometry" />
        </mxCell>
        <mxCell id="2vKA8tlMeW09z5QeAfLY-21" value="Runs Marimo WebApp" style="ellipse;whiteSpace=wrap;html=1;" vertex="1" parent="1">
          <mxGeometry x="450" y="130" width="120" height="80" as="geometry" />
        </mxCell>
        <mxCell id="2vKA8tlMeW09z5QeAfLY-31" style="edgeStyle=orthogonalEdgeStyle;rounded=0;orthogonalLoop=1;jettySize=auto;html=1;entryX=0.993;entryY=0.361;entryDx=0;entryDy=0;entryPerimeter=0;" edge="1" parent="1" source="2vKA8tlMeW09z5QeAfLY-22" target="2vKA8tlMeW09z5QeAfLY-24">
          <mxGeometry relative="1" as="geometry">
            <mxPoint x="610" y="190" as="targetPoint" />
          </mxGeometry>
        </mxCell>
        <mxCell id="2vKA8tlMeW09z5QeAfLY-22" value="Insider" style="shape=umlActor;verticalLabelPosition=bottom;verticalAlign=top;html=1;outlineConnect=0;" vertex="1" parent="1">
          <mxGeometry x="730" y="130" width="30" height="60" as="geometry" />
        </mxCell>
        <mxCell id="2vKA8tlMeW09z5QeAfLY-24" value="Enables Debug Mode" style="ellipse;whiteSpace=wrap;html=1;" vertex="1" parent="1">
          <mxGeometry x="450" y="270" width="120" height="80" as="geometry" />
        </mxCell>
        <mxCell id="2vKA8tlMeW09z5QeAfLY-37" style="edgeStyle=orthogonalEdgeStyle;rounded=0;orthogonalLoop=1;jettySize=auto;html=1;" edge="1" parent="1" source="2vKA8tlMeW09z5QeAfLY-26" target="2vKA8tlMeW09z5QeAfLY-27">
          <mxGeometry relative="1" as="geometry" />
        </mxCell>
        <mxCell id="2vKA8tlMeW09z5QeAfLY-26" value="Actor" style="shape=umlActor;verticalLabelPosition=bottom;verticalAlign=top;html=1;outlineConnect=0;" vertex="1" parent="1">
          <mxGeometry x="730" y="440" width="30" height="60" as="geometry" />
        </mxCell>
        <mxCell id="2vKA8tlMeW09z5QeAfLY-27" value="Probe Debug mode" style="ellipse;whiteSpace=wrap;html=1;labelBackgroundColor=light-dark(#dadada, #ededed);fillColor=light-dark(#0d0d0d, #ededed);" vertex="1" parent="1">
          <mxGeometry x="450" y="420" width="120" height="80" as="geometry" />
        </mxCell>
        <mxCell id="2vKA8tlMeW09z5QeAfLY-28" value="System Logs, and Paths" style="ellipse;whiteSpace=wrap;html=1;fillStyle=auto;fillColor=#000000;labelBackgroundColor=default;" vertex="1" parent="1">
          <mxGeometry x="450" y="560" width="120" height="80" as="geometry" />
        </mxCell>
        <mxCell id="2vKA8tlMeW09z5QeAfLY-33" value="" style="endArrow=none;dashed=1;html=1;dashPattern=1 3;strokeWidth=2;rounded=0;exitX=1;exitY=0.5;exitDx=0;exitDy=0;entryX=0;entryY=0.5;entryDx=0;entryDy=0;" edge="1" parent="1" source="2vKA8tlMeW09z5QeAfLY-11" target="2vKA8tlMeW09z5QeAfLY-21">
          <mxGeometry width="50" height="50" relative="1" as="geometry">
            <mxPoint x="460" y="360" as="sourcePoint" />
            <mxPoint x="510" y="310" as="targetPoint" />
          </mxGeometry>
        </mxCell>
        <mxCell id="2vKA8tlMeW09z5QeAfLY-35" value="" style="endArrow=none;dashed=1;html=1;rounded=0;exitX=0.5;exitY=1;exitDx=0;exitDy=0;entryX=0.5;entryY=0;entryDx=0;entryDy=0;" edge="1" parent="1" source="2vKA8tlMeW09z5QeAfLY-21" target="2vKA8tlMeW09z5QeAfLY-24">
          <mxGeometry width="50" height="50" relative="1" as="geometry">
            <mxPoint x="460" y="360" as="sourcePoint" />
            <mxPoint x="510" y="310" as="targetPoint" />
          </mxGeometry>
        </mxCell>
        <mxCell id="2vKA8tlMeW09z5QeAfLY-41" value="" style="endArrow=none;dashed=1;html=1;rounded=0;exitX=0.5;exitY=0;exitDx=0;exitDy=0;" edge="1" parent="1" source="2vKA8tlMeW09z5QeAfLY-27">
          <mxGeometry width="50" height="50" relative="1" as="geometry">
            <mxPoint x="460" y="400" as="sourcePoint" />
            <mxPoint x="510" y="350" as="targetPoint" />
          </mxGeometry>
        </mxCell>
        <mxCell id="2vKA8tlMeW09z5QeAfLY-42" value="" style="endArrow=none;dashed=1;html=1;rounded=0;entryX=0.5;entryY=1;entryDx=0;entryDy=0;" edge="1" parent="1" source="2vKA8tlMeW09z5QeAfLY-28" target="2vKA8tlMeW09z5QeAfLY-27">
          <mxGeometry width="50" height="50" relative="1" as="geometry">
            <mxPoint x="460" y="400" as="sourcePoint" />
            <mxPoint x="510" y="350" as="targetPoint" />
          </mxGeometry>
        </mxCell>
        <mxCell id="2vKA8tlMeW09z5QeAfLY-43" value="&amp;lt;&amp;lt;includes&amp;gt;&amp;gt;" style="text;strokeColor=none;align=center;fillColor=none;html=1;verticalAlign=middle;whiteSpace=wrap;rounded=0;" vertex="1" parent="1">
          <mxGeometry x="390" y="180" width="60" height="30" as="geometry" />
        </mxCell>
        <mxCell id="2vKA8tlMeW09z5QeAfLY-44" value="&amp;lt;&amp;lt;includes&amp;gt;&amp;gt;" style="text;strokeColor=none;align=center;fillColor=none;html=1;verticalAlign=middle;whiteSpace=wrap;rounded=0;" vertex="1" parent="1">
          <mxGeometry x="440" y="230" width="60" height="30" as="geometry" />
        </mxCell>
        <mxCell id="2vKA8tlMeW09z5QeAfLY-45" value="&amp;lt;&amp;lt;threatens&amp;gt;&amp;gt;" style="text;strokeColor=none;align=center;fillColor=none;html=1;verticalAlign=middle;whiteSpace=wrap;rounded=0;" vertex="1" parent="1">
          <mxGeometry x="530" y="370" width="60" height="30" as="geometry" />
        </mxCell>
        <mxCell id="2vKA8tlMeW09z5QeAfLY-54" style="edgeStyle=orthogonalEdgeStyle;rounded=0;orthogonalLoop=1;jettySize=auto;html=1;exitX=1;exitY=0.5;exitDx=0;exitDy=0;entryX=0;entryY=0.5;entryDx=0;entryDy=0;" edge="1" parent="1" source="2vKA8tlMeW09z5QeAfLY-49" target="2vKA8tlMeW09z5QeAfLY-24">
          <mxGeometry relative="1" as="geometry" />
        </mxCell>
        <mxCell id="2vKA8tlMeW09z5QeAfLY-49" value="Alerts" style="ellipse;whiteSpace=wrap;html=1;" vertex="1" parent="1">
          <mxGeometry x="100" y="260" width="110" height="70" as="geometry" />
        </mxCell>
        <mxCell id="2vKA8tlMeW09z5QeAfLY-55" style="edgeStyle=orthogonalEdgeStyle;rounded=0;orthogonalLoop=1;jettySize=auto;html=1;entryX=0;entryY=0.5;entryDx=0;entryDy=0;" edge="1" parent="1" source="2vKA8tlMeW09z5QeAfLY-51" target="2vKA8tlMeW09z5QeAfLY-24">
          <mxGeometry relative="1" as="geometry" />
        </mxCell>
        <mxCell id="2vKA8tlMeW09z5QeAfLY-51" value="RBAC" style="ellipse;whiteSpace=wrap;html=1;" vertex="1" parent="1">
          <mxGeometry x="110" y="380" width="120" height="80" as="geometry" />
        </mxCell>
        <mxCell id="2vKA8tlMeW09z5QeAfLY-56" style="edgeStyle=orthogonalEdgeStyle;rounded=0;orthogonalLoop=1;jettySize=auto;html=1;" edge="1" parent="1" source="2vKA8tlMeW09z5QeAfLY-53">
          <mxGeometry relative="1" as="geometry">
            <mxPoint x="450" y="310" as="targetPoint" />
            <Array as="points">
              <mxPoint x="451" y="540" />
              <mxPoint x="451" y="310" />
            </Array>
          </mxGeometry>
        </mxCell>
        <mxCell id="2vKA8tlMeW09z5QeAfLY-53" value="" style="ellipse;whiteSpace=wrap;html=1;" vertex="1" parent="1">
          <mxGeometry x="160" y="500" width="120" height="80" as="geometry" />
        </mxCell>
        <mxCell id="2vKA8tlMeW09z5QeAfLY-58" value="&amp;lt;&amp;lt;prevents&amp;gt;&amp;gt;" style="text;strokeColor=none;align=center;fillColor=none;html=1;verticalAlign=middle;whiteSpace=wrap;rounded=0;" vertex="1" parent="1">
          <mxGeometry x="360" y="310" width="60" height="30" as="geometry" />
        </mxCell>
        <mxCell id="2vKA8tlMeW09z5QeAfLY-59" value="&amp;lt;&amp;lt;prevents&amp;gt;&amp;gt;" style="text;strokeColor=none;align=center;fillColor=none;html=1;verticalAlign=middle;whiteSpace=wrap;rounded=0;" vertex="1" parent="1">
          <mxGeometry x="350" y="500" width="60" height="30" as="geometry" />
        </mxCell>
        <mxCell id="2vKA8tlMeW09z5QeAfLY-60" value="&amp;lt;&amp;lt;threatens&amp;gt;&amp;gt;" style="text;strokeColor=none;align=center;fillColor=none;html=1;verticalAlign=middle;whiteSpace=wrap;rounded=0;" vertex="1" parent="1">
          <mxGeometry x="560" y="535" width="60" height="30" as="geometry" />
        </mxCell>
      </root>
    </mxGraphModel>
  </diagram>
</mxfile>
